<mxfile host="Electron" modified="2023-08-30T08:11:21.818Z" agent="Mozilla/5.0 (Windows NT 10.0; Win64; x64) AppleWebKit/537.36 (KHTML, like Gecko) draw.io/21.6.1 Chrome/112.0.5615.204 Electron/24.6.1 Safari/537.36" etag="5pEio3Q4OA8Q_SwqACRp" version="21.6.1" type="device">
  <diagram name="페이지-1" id="6bvEGNYXZq6wiC8O5_vg">
    <mxGraphModel dx="3572" dy="2050" grid="1" gridSize="10" guides="1" tooltips="1" connect="1" arrows="1" fold="1" page="1" pageScale="1" pageWidth="827" pageHeight="1169" math="0" shadow="0">
      <root>
        <mxCell id="0" />
        <mxCell id="1" parent="0" />
        <mxCell id="LZhuQtYvkgRt5L6Dbis8-43" value="각 종목별 매수, 매도 판단" style="swimlane;whiteSpace=wrap;html=1;" vertex="1" parent="1">
          <mxGeometry x="-440" y="220" width="650" height="640" as="geometry" />
        </mxCell>
        <mxCell id="LZhuQtYvkgRt5L6Dbis8-2" value="매수" style="swimlane;whiteSpace=wrap;html=1;" vertex="1" parent="LZhuQtYvkgRt5L6Dbis8-43">
          <mxGeometry x="410" y="35" width="230" height="560" as="geometry" />
        </mxCell>
        <mxCell id="LZhuQtYvkgRt5L6Dbis8-13" value="" style="edgeStyle=orthogonalEdgeStyle;rounded=0;orthogonalLoop=1;jettySize=auto;html=1;" edge="1" parent="LZhuQtYvkgRt5L6Dbis8-2" source="LZhuQtYvkgRt5L6Dbis8-5" target="LZhuQtYvkgRt5L6Dbis8-10">
          <mxGeometry relative="1" as="geometry" />
        </mxCell>
        <mxCell id="LZhuQtYvkgRt5L6Dbis8-5" value="정보" style="swimlane;fontStyle=0;childLayout=stackLayout;horizontal=1;startSize=30;horizontalStack=0;resizeParent=1;resizeParentMax=0;resizeLast=0;collapsible=1;marginBottom=0;whiteSpace=wrap;html=1;" vertex="1" parent="LZhuQtYvkgRt5L6Dbis8-2">
          <mxGeometry x="10" y="40" width="140" height="90" as="geometry" />
        </mxCell>
        <mxCell id="LZhuQtYvkgRt5L6Dbis8-6" value="호가잔량리스트" style="text;strokeColor=none;fillColor=none;align=left;verticalAlign=middle;spacingLeft=4;spacingRight=4;overflow=hidden;points=[[0,0.5],[1,0.5]];portConstraint=eastwest;rotatable=0;whiteSpace=wrap;html=1;" vertex="1" parent="LZhuQtYvkgRt5L6Dbis8-5">
          <mxGeometry y="30" width="140" height="30" as="geometry" />
        </mxCell>
        <mxCell id="LZhuQtYvkgRt5L6Dbis8-7" value="호가리스트" style="text;strokeColor=none;fillColor=none;align=left;verticalAlign=middle;spacingLeft=4;spacingRight=4;overflow=hidden;points=[[0,0.5],[1,0.5]];portConstraint=eastwest;rotatable=0;whiteSpace=wrap;html=1;" vertex="1" parent="LZhuQtYvkgRt5L6Dbis8-5">
          <mxGeometry y="60" width="140" height="30" as="geometry" />
        </mxCell>
        <mxCell id="LZhuQtYvkgRt5L6Dbis8-16" value="" style="edgeStyle=orthogonalEdgeStyle;rounded=0;orthogonalLoop=1;jettySize=auto;html=1;" edge="1" parent="LZhuQtYvkgRt5L6Dbis8-2" source="LZhuQtYvkgRt5L6Dbis8-10" target="LZhuQtYvkgRt5L6Dbis8-15">
          <mxGeometry relative="1" as="geometry" />
        </mxCell>
        <mxCell id="LZhuQtYvkgRt5L6Dbis8-10" value="정제된 정보" style="swimlane;fontStyle=0;childLayout=stackLayout;horizontal=1;startSize=30;horizontalStack=0;resizeParent=1;resizeParentMax=0;resizeLast=0;collapsible=1;marginBottom=0;whiteSpace=wrap;html=1;" vertex="1" parent="LZhuQtYvkgRt5L6Dbis8-2">
          <mxGeometry x="10" y="180" width="140" height="90" as="geometry" />
        </mxCell>
        <mxCell id="LZhuQtYvkgRt5L6Dbis8-11" value="현재가" style="text;strokeColor=none;fillColor=none;align=left;verticalAlign=middle;spacingLeft=4;spacingRight=4;overflow=hidden;points=[[0,0.5],[1,0.5]];portConstraint=eastwest;rotatable=0;whiteSpace=wrap;html=1;" vertex="1" parent="LZhuQtYvkgRt5L6Dbis8-10">
          <mxGeometry y="30" width="140" height="30" as="geometry" />
        </mxCell>
        <mxCell id="LZhuQtYvkgRt5L6Dbis8-12" value="기대가" style="text;strokeColor=none;fillColor=none;align=left;verticalAlign=middle;spacingLeft=4;spacingRight=4;overflow=hidden;points=[[0,0.5],[1,0.5]];portConstraint=eastwest;rotatable=0;whiteSpace=wrap;html=1;" vertex="1" parent="LZhuQtYvkgRt5L6Dbis8-10">
          <mxGeometry y="60" width="140" height="30" as="geometry" />
        </mxCell>
        <mxCell id="LZhuQtYvkgRt5L6Dbis8-18" value="true" style="edgeStyle=orthogonalEdgeStyle;rounded=0;orthogonalLoop=1;jettySize=auto;html=1;" edge="1" parent="LZhuQtYvkgRt5L6Dbis8-2" source="LZhuQtYvkgRt5L6Dbis8-15" target="LZhuQtYvkgRt5L6Dbis8-17">
          <mxGeometry relative="1" as="geometry" />
        </mxCell>
        <mxCell id="LZhuQtYvkgRt5L6Dbis8-15" value="기대가 &lt;br&gt;&amp;gt;&lt;br&gt;현재가" style="rhombus;whiteSpace=wrap;html=1;fontStyle=0;startSize=30;" vertex="1" parent="LZhuQtYvkgRt5L6Dbis8-2">
          <mxGeometry x="40" y="310" width="80" height="80" as="geometry" />
        </mxCell>
        <mxCell id="LZhuQtYvkgRt5L6Dbis8-17" value="(총평가자산 - 비상금 - 보유주식가치) / 종목수&lt;br&gt;값어치 만큼 매수" style="whiteSpace=wrap;html=1;fontStyle=0;startSize=30;" vertex="1" parent="LZhuQtYvkgRt5L6Dbis8-2">
          <mxGeometry x="15" y="480" width="130" height="60" as="geometry" />
        </mxCell>
        <mxCell id="LZhuQtYvkgRt5L6Dbis8-28" value="다음 &lt;br&gt;종목으로." style="rounded=0;whiteSpace=wrap;html=1;" vertex="1" parent="LZhuQtYvkgRt5L6Dbis8-2">
          <mxGeometry x="160" y="320" width="60" height="60" as="geometry" />
        </mxCell>
        <mxCell id="LZhuQtYvkgRt5L6Dbis8-27" value="false" style="edgeStyle=orthogonalEdgeStyle;rounded=0;orthogonalLoop=1;jettySize=auto;html=1;" edge="1" parent="LZhuQtYvkgRt5L6Dbis8-2" source="LZhuQtYvkgRt5L6Dbis8-15" target="LZhuQtYvkgRt5L6Dbis8-28">
          <mxGeometry relative="1" as="geometry">
            <mxPoint x="180" y="350" as="targetPoint" />
          </mxGeometry>
        </mxCell>
        <mxCell id="LZhuQtYvkgRt5L6Dbis8-22" value="보유주식 리스트&lt;br&gt;(종목코드, 매수가, 수량, 기대값)" style="whiteSpace=wrap;html=1;fontStyle=0;startSize=30;" vertex="1" parent="LZhuQtYvkgRt5L6Dbis8-43">
          <mxGeometry x="95" y="80" width="180" height="60" as="geometry" />
        </mxCell>
        <mxCell id="LZhuQtYvkgRt5L6Dbis8-23" value="" style="edgeStyle=orthogonalEdgeStyle;rounded=0;orthogonalLoop=1;jettySize=auto;html=1;" edge="1" parent="LZhuQtYvkgRt5L6Dbis8-43" source="LZhuQtYvkgRt5L6Dbis8-17" target="LZhuQtYvkgRt5L6Dbis8-22">
          <mxGeometry relative="1" as="geometry">
            <Array as="points">
              <mxPoint x="390" y="555" />
              <mxPoint x="390" y="125" />
            </Array>
          </mxGeometry>
        </mxCell>
        <mxCell id="LZhuQtYvkgRt5L6Dbis8-25" value="+" style="ellipse;whiteSpace=wrap;html=1;aspect=fixed;" vertex="1" parent="LZhuQtYvkgRt5L6Dbis8-43">
          <mxGeometry x="370" y="535" width="40" height="40" as="geometry" />
        </mxCell>
        <mxCell id="LZhuQtYvkgRt5L6Dbis8-35" value="매도" style="swimlane;whiteSpace=wrap;html=1;" vertex="1" parent="LZhuQtYvkgRt5L6Dbis8-43">
          <mxGeometry x="10" y="385" width="350" height="240" as="geometry" />
        </mxCell>
        <mxCell id="LZhuQtYvkgRt5L6Dbis8-38" value="true" style="edgeStyle=orthogonalEdgeStyle;rounded=0;orthogonalLoop=1;jettySize=auto;html=1;" edge="1" parent="LZhuQtYvkgRt5L6Dbis8-35" source="LZhuQtYvkgRt5L6Dbis8-36" target="LZhuQtYvkgRt5L6Dbis8-37">
          <mxGeometry relative="1" as="geometry" />
        </mxCell>
        <mxCell id="LZhuQtYvkgRt5L6Dbis8-40" value="false" style="edgeStyle=orthogonalEdgeStyle;rounded=0;orthogonalLoop=1;jettySize=auto;html=1;" edge="1" parent="LZhuQtYvkgRt5L6Dbis8-35" source="LZhuQtYvkgRt5L6Dbis8-36" target="LZhuQtYvkgRt5L6Dbis8-39">
          <mxGeometry relative="1" as="geometry" />
        </mxCell>
        <mxCell id="LZhuQtYvkgRt5L6Dbis8-36" value="손해 1.5% 이상" style="rhombus;whiteSpace=wrap;html=1;" vertex="1" parent="LZhuQtYvkgRt5L6Dbis8-35">
          <mxGeometry x="5" y="30" width="100" height="80" as="geometry" />
        </mxCell>
        <mxCell id="LZhuQtYvkgRt5L6Dbis8-37" value="손절매 매도" style="whiteSpace=wrap;html=1;" vertex="1" parent="LZhuQtYvkgRt5L6Dbis8-35">
          <mxGeometry x="5" y="170" width="100" height="60" as="geometry" />
        </mxCell>
        <mxCell id="LZhuQtYvkgRt5L6Dbis8-42" value="" style="edgeStyle=orthogonalEdgeStyle;rounded=0;orthogonalLoop=1;jettySize=auto;html=1;" edge="1" parent="LZhuQtYvkgRt5L6Dbis8-35" source="LZhuQtYvkgRt5L6Dbis8-39" target="LZhuQtYvkgRt5L6Dbis8-41">
          <mxGeometry relative="1" as="geometry" />
        </mxCell>
        <mxCell id="LZhuQtYvkgRt5L6Dbis8-39" value="현재가 &amp;gt; 기대값 - 2틱" style="rhombus;whiteSpace=wrap;html=1;" vertex="1" parent="LZhuQtYvkgRt5L6Dbis8-35">
          <mxGeometry x="205" y="30" width="140" height="80" as="geometry" />
        </mxCell>
        <mxCell id="LZhuQtYvkgRt5L6Dbis8-41" value="이익실현 매도" style="whiteSpace=wrap;html=1;" vertex="1" parent="LZhuQtYvkgRt5L6Dbis8-35">
          <mxGeometry x="215" y="170" width="120" height="60" as="geometry" />
        </mxCell>
        <mxCell id="LZhuQtYvkgRt5L6Dbis8-31" value="종목코드&amp;nbsp;&lt;br&gt;in&lt;br&gt;보유리스트" style="rhombus;whiteSpace=wrap;html=1;" vertex="1" parent="LZhuQtYvkgRt5L6Dbis8-43">
          <mxGeometry x="145" y="200" width="80" height="80" as="geometry" />
        </mxCell>
        <mxCell id="LZhuQtYvkgRt5L6Dbis8-30" style="edgeStyle=orthogonalEdgeStyle;rounded=0;orthogonalLoop=1;jettySize=auto;html=1;" edge="1" parent="LZhuQtYvkgRt5L6Dbis8-43" source="LZhuQtYvkgRt5L6Dbis8-22" target="LZhuQtYvkgRt5L6Dbis8-31">
          <mxGeometry relative="1" as="geometry">
            <mxPoint x="-15" y="110" as="targetPoint" />
          </mxGeometry>
        </mxCell>
        <mxCell id="LZhuQtYvkgRt5L6Dbis8-34" value="true" style="edgeStyle=orthogonalEdgeStyle;rounded=0;orthogonalLoop=1;jettySize=auto;html=1;entryX=0.5;entryY=0;entryDx=0;entryDy=0;" edge="1" parent="LZhuQtYvkgRt5L6Dbis8-43" source="LZhuQtYvkgRt5L6Dbis8-31" target="LZhuQtYvkgRt5L6Dbis8-35">
          <mxGeometry relative="1" as="geometry">
            <mxPoint x="-100.00000000000023" y="290" as="targetPoint" />
            <mxPoint as="offset" />
          </mxGeometry>
        </mxCell>
      </root>
    </mxGraphModel>
  </diagram>
</mxfile>
